<svg xmlns="http://www.w3.org/2000/svg" viewBox="0 0 96 96">
<defs><radialGradient id="bg" cx="0.32" cy="0.24" r="1.05">
<stop offset="0" stop-color="#ffd36b"/><stop offset="1" stop-color="#ef9a14"/></radialGradient>
<linearGradient id="gl" x1="0" y1="0" x2="0" y2="1"><stop offset="0" stop-color="#ffffff" stop-opacity="0.35"/><stop offset="1" stop-color="#ffffff" stop-opacity="0"/></linearGradient>
<clipPath id="cp"><circle cx="48" cy="48" r="48"/></clipPath></defs>
<circle cx="48" cy="48" r="48" fill="url(#bg)"/>
<circle cx="48" cy="48" r="43.5" fill="none" stroke="#ffffff" stroke-opacity="0.22" stroke-width="1.6"/>
<g clip-path="url(#cp)"><path d="M19 14 Q30 16 35 29 Q23 33 15 28 Q15 19 19 14Z" fill="#d9820a"/><path d="M77 14 Q66 16 61 29 Q73 33 81 28 Q81 19 77 14Z" fill="#d9820a"/><path d="M22 18.5 Q29 20.5 32.5 28 Q24.5 30.5 19.5 27 Q19.7 21.5 22 18.5Z" fill="#fff" opacity=".88"/><path d="M74 18.5 Q67 20.5 63.5 28 Q71.5 30.5 76.5 27 Q76.3 21.5 74 18.5Z" fill="#fff" opacity=".88"/><ellipse cx="48" cy="63" rx="15.5" ry="11" fill="#fff5e0"/><circle cx="37.5" cy="49" r="6.6" fill="#1d2030"/><circle cx="58.5" cy="49" r="6.6" fill="#1d2030"/><circle cx="39.6" cy="46.7" r="2.6" fill="#fff"/><circle cx="60.6" cy="46.7" r="2.6" fill="#fff"/><circle cx="35.5" cy="51" r="1.2" fill="#fff" opacity=".8"/><circle cx="56.5" cy="51" r="1.2" fill="#fff" opacity=".8"/><circle cx="38.0" cy="52.6" r="0.8" fill="#9fd8ff" opacity=".9"/><circle cx="59.0" cy="52.6" r="0.8" fill="#9fd8ff" opacity=".9"/><ellipse cx="30" cy="59" rx="5.8" ry="3.6" fill="#f0813c" opacity="0.5"/><ellipse cx="66" cy="59" rx="5.8" ry="3.6" fill="#f0813c" opacity="0.5"/><ellipse cx="48" cy="59.5" rx="3.8" ry="3" fill="#1d2030"/><path d="M42.5 65 Q48 68.5 53.5 65" stroke="#1d2030" stroke-width="3" fill="none" stroke-linecap="round"/></g>
<path d="M48 6 a42 42 0 0 1 36 20" stroke="url(#gl)" stroke-width="7" fill="none" stroke-linecap="round" opacity=".55"/>
<path d="M79 73 l1.5 3.4 3.4 1.5 -3.4 1.5 -1.5 3.4 -1.5-3.4 -3.4-1.5 3.4-1.5z" fill="#ffffff" opacity=".85"/>
</svg>