<svg xmlns="http://www.w3.org/2000/svg" viewBox="0 0 96 96">
<defs><radialGradient id="bg" cx="0.32" cy="0.24" r="1.05">
<stop offset="0" stop-color="#b07ef5"/><stop offset="1" stop-color="#6e35c2"/></radialGradient>
<linearGradient id="gl" x1="0" y1="0" x2="0" y2="1"><stop offset="0" stop-color="#ffffff" stop-opacity="0.35"/><stop offset="1" stop-color="#ffffff" stop-opacity="0"/></linearGradient>
<clipPath id="cp"><circle cx="48" cy="48" r="48"/></clipPath></defs>
<circle cx="48" cy="48" r="48" fill="url(#bg)"/>
<circle cx="48" cy="48" r="43.5" fill="none" stroke="#ffffff" stroke-opacity="0.22" stroke-width="1.6"/>
<g clip-path="url(#cp)"><path d="M9 96 Q17 75 27 84 Q33.5 90 40 84 Q45 79 51 84 Q57.5 90 64 84 Q74 75 87 96 Z" fill="#5b2aa1"/><circle cx="31" cy="70" r="2.6" fill="#d6bcf8" opacity=".95"/><circle cx="48" cy="73.5" r="2.6" fill="#d6bcf8" opacity=".95"/><circle cx="65" cy="70" r="2.6" fill="#d6bcf8" opacity=".95"/><circle cx="37.5" cy="47" r="6.6" fill="#1d2030"/><circle cx="58.5" cy="47" r="6.6" fill="#1d2030"/><circle cx="39.6" cy="44.7" r="2.6" fill="#fff"/><circle cx="60.6" cy="44.7" r="2.6" fill="#fff"/><circle cx="35.5" cy="49" r="1.2" fill="#fff" opacity=".8"/><circle cx="56.5" cy="49" r="1.2" fill="#fff" opacity=".8"/><circle cx="38.0" cy="50.6" r="0.8" fill="#9fd8ff" opacity=".9"/><circle cx="59.0" cy="50.6" r="0.8" fill="#9fd8ff" opacity=".9"/><ellipse cx="30.5" cy="56" rx="5.8" ry="3.6" fill="#ff9ec1" opacity="0.5"/><ellipse cx="65.5" cy="56" rx="5.8" ry="3.6" fill="#ff9ec1" opacity="0.5"/><path d="M40.5 57 Q48 62 55.5 57" stroke="#1d2030" stroke-width="3" fill="none" stroke-linecap="round"/></g>
<path d="M48 6 a42 42 0 0 1 36 20" stroke="url(#gl)" stroke-width="7" fill="none" stroke-linecap="round" opacity=".55"/>
<path d="M79 73 l1.5 3.4 3.4 1.5 -3.4 1.5 -1.5 3.4 -1.5-3.4 -3.4-1.5 3.4-1.5z" fill="#7ef0d4" opacity=".85"/>
</svg>