<svg xmlns="http://www.w3.org/2000/svg" viewBox="0 0 96 96">
<defs><radialGradient id="bg" cx="0.32" cy="0.24" r="1.05">
<stop offset="0" stop-color="#5d7fc4"/><stop offset="1" stop-color="#2b4584"/></radialGradient>
<linearGradient id="gl" x1="0" y1="0" x2="0" y2="1"><stop offset="0" stop-color="#ffffff" stop-opacity="0.35"/><stop offset="1" stop-color="#ffffff" stop-opacity="0"/></linearGradient>
<clipPath id="cp"><circle cx="48" cy="48" r="48"/></clipPath></defs>
<circle cx="48" cy="48" r="48" fill="url(#bg)"/>
<circle cx="48" cy="48" r="43.5" fill="none" stroke="#ffffff" stroke-opacity="0.22" stroke-width="1.6"/>
<g clip-path="url(#cp)"><line x1="48" y1="6" x2="48" y2="18" stroke="#aebfe6" stroke-width="3.8" stroke-linecap="round"/><circle cx="48" cy="6.5" r="4.8" fill="#fbbc05"/><circle cx="46.5" cy="5" r="1.5" fill="#fff" opacity=".85"/><rect x="22" y="32" width="52" height="38" rx="12" fill="#22366b"/><rect x="25" y="35" width="46" height="15" rx="8" fill="#31508f" opacity=".55"/><rect x="31" y="41" width="13.5" height="13.5" rx="4.5" fill="#7ef0d4"/><rect x="51.5" y="41" width="13.5" height="13.5" rx="4.5" fill="#7ef0d4"/><rect x="33.5" y="43.5" width="4.5" height="4.5" rx="1.6" fill="#fff" opacity=".9"/><rect x="54" y="43.5" width="4.5" height="4.5" rx="1.6" fill="#fff" opacity=".9"/><circle cx="37.7" cy="51" r="1.1" fill="#0d7a62" opacity=".7"/><circle cx="58.2" cy="51" r="1.1" fill="#0d7a62" opacity=".7"/><path d="M40 61.5 Q48 66 56 61.5" stroke="#aebfe6" stroke-width="3.2" fill="none" stroke-linecap="round"/><circle cx="18" cy="51" r="3.8" fill="#aebfe6"/><circle cx="78" cy="51" r="3.8" fill="#aebfe6"/></g>
<path d="M48 6 a42 42 0 0 1 36 20" stroke="url(#gl)" stroke-width="7" fill="none" stroke-linecap="round" opacity=".55"/>
<path d="M79 73 l1.5 3.4 3.4 1.5 -3.4 1.5 -1.5 3.4 -1.5-3.4 -3.4-1.5 3.4-1.5z" fill="#7ef0d4" opacity=".85"/>
</svg>