<svg xmlns="http://www.w3.org/2000/svg" viewBox="0 0 96 96">
<defs><radialGradient id="bg" cx="0.32" cy="0.24" r="1.05">
<stop offset="0" stop-color="#ffffff"/><stop offset="1" stop-color="#dde4f0"/></radialGradient>
<linearGradient id="gl" x1="0" y1="0" x2="0" y2="1"><stop offset="0" stop-color="#ffffff" stop-opacity="0.35"/><stop offset="1" stop-color="#ffffff" stop-opacity="0"/></linearGradient>
<clipPath id="cp"><circle cx="48" cy="48" r="48"/></clipPath></defs>
<circle cx="48" cy="48" r="48" fill="url(#bg)"/>
<circle cx="48" cy="48" r="43.5" fill="none" stroke="#ffffff" stroke-opacity="0.22" stroke-width="1.6"/>
<g clip-path="url(#cp)"><circle cx="21" cy="19" r="11.5" fill="#2e3247"/><circle cx="75" cy="19" r="11.5" fill="#2e3247"/><circle cx="21" cy="19" r="5" fill="#4d5370"/><circle cx="75" cy="19" r="5" fill="#4d5370"/><ellipse cx="37" cy="48" rx="11" ry="13" fill="#2e3247" transform="rotate(-14 37 48)"/><ellipse cx="59" cy="48" rx="11" ry="13" fill="#2e3247" transform="rotate(14 59 48)"/><circle cx="37.5" cy="48" r="6.2" fill="#fff"/><circle cx="58.5" cy="48" r="6.2" fill="#fff"/><circle cx="37.5" cy="48.2" r="3.4" fill="#1d2030"/><circle cx="58.5" cy="48.2" r="3.4" fill="#1d2030"/><circle cx="38.9" cy="46.8" r="1.4" fill="#fff"/><circle cx="59.9" cy="46.8" r="1.4" fill="#fff"/><ellipse cx="28" cy="61" rx="5.8" ry="3.6" fill="#ff8fa3" opacity="0.45"/><ellipse cx="68" cy="61" rx="5.8" ry="3.6" fill="#ff8fa3" opacity="0.45"/><ellipse cx="48" cy="61.5" rx="4" ry="3.2" fill="#2e3247"/><path d="M43 67 Q48 70.2 53 67" stroke="#1d2030" stroke-width="3" fill="none" stroke-linecap="round"/></g>
<path d="M48 6 a42 42 0 0 1 36 20" stroke="url(#gl)" stroke-width="7" fill="none" stroke-linecap="round" opacity=".55"/>
<path d="M79 73 l1.5 3.4 3.4 1.5 -3.4 1.5 -1.5 3.4 -1.5-3.4 -3.4-1.5 3.4-1.5z" fill="#5b93f5" opacity=".85"/>
</svg>