<svg xmlns="http://www.w3.org/2000/svg" viewBox="0 0 96 96">
<defs><radialGradient id="bg" cx="0.32" cy="0.24" r="1.05">
<stop offset="0" stop-color="#6fdc99"/><stop offset="1" stop-color="#27994b"/></radialGradient>
<linearGradient id="gl" x1="0" y1="0" x2="0" y2="1"><stop offset="0" stop-color="#ffffff" stop-opacity="0.35"/><stop offset="1" stop-color="#ffffff" stop-opacity="0"/></linearGradient>
<clipPath id="cp"><circle cx="48" cy="48" r="48"/></clipPath></defs>
<circle cx="48" cy="48" r="48" fill="url(#bg)"/>
<circle cx="48" cy="48" r="43.5" fill="none" stroke="#ffffff" stroke-opacity="0.22" stroke-width="1.6"/>
<g clip-path="url(#cp)"><circle cx="30" cy="22" r="13" fill="#2da556"/><circle cx="66" cy="22" r="13" fill="#2da556"/><circle cx="30" cy="22" r="9.2" fill="#fff"/><circle cx="66" cy="22" r="9.2" fill="#fff"/><circle cx="30" cy="23.5" r="5" fill="#1d2030"/><circle cx="66" cy="23.5" r="5" fill="#1d2030"/><circle cx="31.8" cy="21.8" r="1.9" fill="#fff"/><circle cx="67.8" cy="21.8" r="1.9" fill="#fff"/><circle cx="42" cy="49" r="2" fill="#1c7a3f"/><circle cx="54" cy="49" r="2" fill="#1c7a3f"/><ellipse cx="30" cy="58" rx="5.8" ry="3.6" fill="#ffd1dc" opacity="0.55"/><ellipse cx="66" cy="58" rx="5.8" ry="3.6" fill="#ffd1dc" opacity="0.55"/><path d="M36.5 58 Q48 65.5 59.5 58" stroke="#1d2030" stroke-width="3.2" fill="none" stroke-linecap="round"/></g>
<path d="M48 6 a42 42 0 0 1 36 20" stroke="url(#gl)" stroke-width="7" fill="none" stroke-linecap="round" opacity=".55"/>
<path d="M79 73 l1.5 3.4 3.4 1.5 -3.4 1.5 -1.5 3.4 -1.5-3.4 -3.4-1.5 3.4-1.5z" fill="#ffffff" opacity=".85"/>
</svg>