<svg xmlns="http://www.w3.org/2000/svg" viewBox="0 0 96 96">
<defs><radialGradient id="bg" cx="0.32" cy="0.24" r="1.05">
<stop offset="0" stop-color="#ffe98f"/><stop offset="1" stop-color="#ffc226"/></radialGradient>
<linearGradient id="gl" x1="0" y1="0" x2="0" y2="1"><stop offset="0" stop-color="#ffffff" stop-opacity="0.35"/><stop offset="1" stop-color="#ffffff" stop-opacity="0"/></linearGradient>
<clipPath id="cp"><circle cx="48" cy="48" r="48"/></clipPath></defs>
<circle cx="48" cy="48" r="48" fill="url(#bg)"/>
<circle cx="48" cy="48" r="43.5" fill="none" stroke="#ffffff" stroke-opacity="0.22" stroke-width="1.6"/>
<g clip-path="url(#cp)"><path d="M44 8 q3-5 7-6 q-1 4 1 7 q4-3 8-2 q-3 4-7 5 q-3 1-9-4z" fill="#f2a31b"/><circle cx="37.5" cy="48" r="6.6" fill="#1d2030"/><circle cx="58.5" cy="48" r="6.6" fill="#1d2030"/><circle cx="39.6" cy="45.7" r="2.6" fill="#fff"/><circle cx="60.6" cy="45.7" r="2.6" fill="#fff"/><circle cx="35.5" cy="50" r="1.2" fill="#fff" opacity=".8"/><circle cx="56.5" cy="50" r="1.2" fill="#fff" opacity=".8"/><circle cx="38.0" cy="51.6" r="0.8" fill="#9fd8ff" opacity=".9"/><circle cx="59.0" cy="51.6" r="0.8" fill="#9fd8ff" opacity=".9"/><ellipse cx="31" cy="57" rx="5.8" ry="3.6" fill="#ffab66" opacity="0.6"/><ellipse cx="65" cy="57" rx="5.8" ry="3.6" fill="#ffab66" opacity="0.6"/><polygon points="48,54 42.5,60.5 53.5,60.5" fill="#ff8a3d"/><path d="M42.5 60.5 Q48 63.6 53.5 60.5" stroke="#e86f1f" stroke-width="1.7" fill="none" stroke-linecap="round"/></g>
<path d="M48 6 a42 42 0 0 1 36 20" stroke="url(#gl)" stroke-width="7" fill="none" stroke-linecap="round" opacity=".55"/>
<path d="M79 73 l1.5 3.4 3.4 1.5 -3.4 1.5 -1.5 3.4 -1.5-3.4 -3.4-1.5 3.4-1.5z" fill="#ffffff" opacity=".85"/>
</svg>