<svg xmlns="http://www.w3.org/2000/svg" viewBox="0 0 96 96">
<defs><radialGradient id="bg" cx="0.32" cy="0.24" r="1.05">
<stop offset="0" stop-color="#ff8db5"/><stop offset="1" stop-color="#e1407c"/></radialGradient>
<linearGradient id="gl" x1="0" y1="0" x2="0" y2="1"><stop offset="0" stop-color="#ffffff" stop-opacity="0.35"/><stop offset="1" stop-color="#ffffff" stop-opacity="0"/></linearGradient>
<clipPath id="cp"><circle cx="48" cy="48" r="48"/></clipPath></defs>
<circle cx="48" cy="48" r="48" fill="url(#bg)"/>
<circle cx="48" cy="48" r="43.5" fill="none" stroke="#ffffff" stroke-opacity="0.22" stroke-width="1.6"/>
<g clip-path="url(#cp)"><ellipse cx="32" cy="15" rx="9.5" ry="18" fill="#c93a70" transform="rotate(-8 32 15)"/><ellipse cx="64" cy="15" rx="9.5" ry="18" fill="#c93a70" transform="rotate(8 64 15)"/><ellipse cx="32.5" cy="16" rx="4.8" ry="12" fill="#ffd7e6" transform="rotate(-8 32.5 16)"/><ellipse cx="63.5" cy="16" rx="4.8" ry="12" fill="#ffd7e6" transform="rotate(8 63.5 16)"/><ellipse cx="48" cy="63" rx="13.5" ry="10" fill="#fff" opacity=".94"/><circle cx="37.5" cy="49" r="6.6" fill="#1d2030"/><circle cx="58.5" cy="49" r="6.6" fill="#1d2030"/><circle cx="39.6" cy="46.7" r="2.6" fill="#fff"/><circle cx="60.6" cy="46.7" r="2.6" fill="#fff"/><circle cx="35.5" cy="51" r="1.2" fill="#fff" opacity=".8"/><circle cx="56.5" cy="51" r="1.2" fill="#fff" opacity=".8"/><circle cx="38.0" cy="52.6" r="0.8" fill="#9fd8ff" opacity=".9"/><circle cx="59.0" cy="52.6" r="0.8" fill="#9fd8ff" opacity=".9"/><ellipse cx="29.5" cy="58" rx="5.8" ry="3.6" fill="#ff8fa3" opacity="0.6"/><ellipse cx="66.5" cy="58" rx="5.8" ry="3.6" fill="#ff8fa3" opacity="0.6"/><ellipse cx="48" cy="59.5" rx="3.1" ry="2.5" fill="#e1407c"/><path d="M43 64.5 Q48 67.9 53 64.5" stroke="#1d2030" stroke-width="3" fill="none" stroke-linecap="round"/><path d="M48 59.5 v3.4" stroke="#c93a70" stroke-width="1.9" stroke-linecap="round"/></g>
<path d="M48 6 a42 42 0 0 1 36 20" stroke="url(#gl)" stroke-width="7" fill="none" stroke-linecap="round" opacity=".55"/>
<path d="M79 73 l1.5 3.4 3.4 1.5 -3.4 1.5 -1.5 3.4 -1.5-3.4 -3.4-1.5 3.4-1.5z" fill="#ffffff" opacity=".85"/>
</svg>