<svg xmlns="http://www.w3.org/2000/svg" viewBox="0 0 96 96">
<defs><radialGradient id="bg" cx="0.32" cy="0.24" r="1.05">
<stop offset="0" stop-color="#cd9764"/><stop offset="1" stop-color="#9c6435"/></radialGradient>
<linearGradient id="gl" x1="0" y1="0" x2="0" y2="1"><stop offset="0" stop-color="#ffffff" stop-opacity="0.35"/><stop offset="1" stop-color="#ffffff" stop-opacity="0"/></linearGradient>
<clipPath id="cp"><circle cx="48" cy="48" r="48"/></clipPath></defs>
<circle cx="48" cy="48" r="48" fill="url(#bg)"/>
<circle cx="48" cy="48" r="43.5" fill="none" stroke="#ffffff" stroke-opacity="0.22" stroke-width="1.6"/>
<g clip-path="url(#cp)"><circle cx="20" cy="20" r="12" fill="#85562f"/><circle cx="76" cy="20" r="12" fill="#85562f"/><circle cx="20" cy="20" r="5.8" fill="#ecd1b2"/><circle cx="76" cy="20" r="5.8" fill="#ecd1b2"/><ellipse cx="48" cy="62" rx="15" ry="11.5" fill="#efd6b8"/><circle cx="37.5" cy="49" r="6.6" fill="#1d2030"/><circle cx="58.5" cy="49" r="6.6" fill="#1d2030"/><circle cx="39.6" cy="46.7" r="2.6" fill="#fff"/><circle cx="60.6" cy="46.7" r="2.6" fill="#fff"/><circle cx="35.5" cy="51" r="1.2" fill="#fff" opacity=".8"/><circle cx="56.5" cy="51" r="1.2" fill="#fff" opacity=".8"/><circle cx="38.0" cy="52.6" r="0.8" fill="#9fd8ff" opacity=".9"/><circle cx="59.0" cy="52.6" r="0.8" fill="#9fd8ff" opacity=".9"/><ellipse cx="29" cy="58" rx="5.8" ry="3.6" fill="#e8855f" opacity="0.5"/><ellipse cx="67" cy="58" rx="5.8" ry="3.6" fill="#e8855f" opacity="0.5"/><ellipse cx="48" cy="58.5" rx="4.2" ry="3.3" fill="#1d2030"/><path d="M42.5 64.5 Q48 68.0 53.5 64.5" stroke="#1d2030" stroke-width="3" fill="none" stroke-linecap="round"/></g>
<path d="M48 6 a42 42 0 0 1 36 20" stroke="url(#gl)" stroke-width="7" fill="none" stroke-linecap="round" opacity=".55"/>
<path d="M79 73 l1.5 3.4 3.4 1.5 -3.4 1.5 -1.5 3.4 -1.5-3.4 -3.4-1.5 3.4-1.5z" fill="#ffffff" opacity=".85"/>
</svg>