<svg xmlns="http://www.w3.org/2000/svg" viewBox="0 0 96 96">
<defs><radialGradient id="bg" cx="0.32" cy="0.24" r="1.05">
<stop offset="0" stop-color="#35cfe2"/><stop offset="1" stop-color="#0a8ba0"/></radialGradient>
<linearGradient id="gl" x1="0" y1="0" x2="0" y2="1"><stop offset="0" stop-color="#ffffff" stop-opacity="0.35"/><stop offset="1" stop-color="#ffffff" stop-opacity="0"/></linearGradient>
<clipPath id="cp"><circle cx="48" cy="48" r="48"/></clipPath></defs>
<circle cx="48" cy="48" r="48" fill="url(#bg)"/>
<circle cx="48" cy="48" r="43.5" fill="none" stroke="#ffffff" stroke-opacity="0.22" stroke-width="1.6"/>
<g clip-path="url(#cp)"><path d="M21 11 Q31 14 34.5 26 Q23 30 15.5 24.5 Q16.5 16 21 11Z" fill="#076d80"/><path d="M75 11 Q65 14 61.5 26 Q73 30 80.5 24.5 Q79.5 16 75 11Z" fill="#076d80"/><path d="M24 15.5 Q30 17.5 32.3 24.7 Q25 27 20.2 23.8 Q21 18.6 24 15.5Z" fill="#ffd1dc" opacity=".85"/><path d="M72 15.5 Q66 17.5 63.7 24.7 Q71 27 75.8 23.8 Q75 18.6 72 15.5Z" fill="#ffd1dc" opacity=".85"/><circle cx="37.5" cy="49" r="6.6" fill="#1d2030"/><circle cx="58.5" cy="49" r="6.6" fill="#1d2030"/><circle cx="39.6" cy="46.7" r="2.6" fill="#fff"/><circle cx="60.6" cy="46.7" r="2.6" fill="#fff"/><circle cx="35.5" cy="51" r="1.2" fill="#fff" opacity=".8"/><circle cx="56.5" cy="51" r="1.2" fill="#fff" opacity=".8"/><circle cx="38.0" cy="52.6" r="0.8" fill="#9fd8ff" opacity=".9"/><circle cx="59.0" cy="52.6" r="0.8" fill="#9fd8ff" opacity=".9"/><ellipse cx="29.5" cy="58" rx="5.8" ry="3.6" fill="#ffd1dc" opacity="0.5"/><ellipse cx="66.5" cy="58" rx="5.8" ry="3.6" fill="#ffd1dc" opacity="0.5"/><path d="M14 53 h11 M15 60 h10 M71 53 h11 M71 60 h10" stroke="#076d80" stroke-width="2.3" stroke-linecap="round" opacity=".75"/><path d="M44.7 58 q3.3-2.8 6.6 0 l-3.3 3.3z" fill="#1d2030"/><path d="M43.5 62.5 Q48 65.8 52.5 62.5" stroke="#1d2030" stroke-width="2.7" fill="none" stroke-linecap="round"/></g>
<path d="M48 6 a42 42 0 0 1 36 20" stroke="url(#gl)" stroke-width="7" fill="none" stroke-linecap="round" opacity=".55"/>
<path d="M79 73 l1.5 3.4 3.4 1.5 -3.4 1.5 -1.5 3.4 -1.5-3.4 -3.4-1.5 3.4-1.5z" fill="#ffffff" opacity=".85"/>
</svg>