<svg xmlns="http://www.w3.org/2000/svg" viewBox="0 0 96 96">
<defs><radialGradient id="bg" cx="0.32" cy="0.24" r="1.05">
<stop offset="0" stop-color="#6fa3ff"/><stop offset="1" stop-color="#2f5fd0"/></radialGradient>
<linearGradient id="gl" x1="0" y1="0" x2="0" y2="1"><stop offset="0" stop-color="#ffffff" stop-opacity="0.35"/><stop offset="1" stop-color="#ffffff" stop-opacity="0"/></linearGradient>
<clipPath id="cp"><circle cx="48" cy="48" r="48"/></clipPath></defs>
<circle cx="48" cy="48" r="48" fill="url(#bg)"/>
<circle cx="48" cy="48" r="43.5" fill="none" stroke="#ffffff" stroke-opacity="0.22" stroke-width="1.6"/>
<g clip-path="url(#cp)"><path d="M23 12 L33.5 24 L15.5 26.5Z" fill="#2449a6"/><path d="M73 12 L62.5 24 L80.5 26.5Z" fill="#2449a6"/><circle cx="36" cy="47" r="14.5" fill="#fff"/><circle cx="60" cy="47" r="14.5" fill="#fff"/><circle cx="36.5" cy="47" r="6.8" fill="#1d2030"/><circle cx="59.5" cy="47" r="6.8" fill="#1d2030"/><circle cx="38.8" cy="44.6" r="2.5" fill="#fff"/><circle cx="61.8" cy="44.6" r="2.5" fill="#fff"/><circle cx="34.5" cy="49.3" r="1.2" fill="#9fd8ff" opacity=".9"/><circle cx="57.5" cy="49.3" r="1.2" fill="#9fd8ff" opacity=".9"/><polygon points="48,56 43,64 53,64" fill="#fbbc05"/><path d="M29 71 q4-3.2 8 0 M44 73 q4-3.2 8 0 M59 71 q4-3.2 8 0" stroke="#2449a6" stroke-width="2.3" fill="none" stroke-linecap="round" opacity=".7"/></g>
<path d="M48 6 a42 42 0 0 1 36 20" stroke="url(#gl)" stroke-width="7" fill="none" stroke-linecap="round" opacity=".55"/>
<path d="M79 73 l1.5 3.4 3.4 1.5 -3.4 1.5 -1.5 3.4 -1.5-3.4 -3.4-1.5 3.4-1.5z" fill="#ffffff" opacity=".85"/>
</svg>